<svg width="1000" height="1060" viewBox="0 0 1000 1060" fill="none" xmlns="http://www.w3.org/2000/svg">
<path d="M159.345 404.586C159.693 405.398 160.111 405.437 160.601 404.702C170.388 390.226 184.019 380.42 201.11 376.121C229.426 368.994 265.133 374.829 277.198 404.914C282.725 418.702 284.056 433.221 284.067 449.709C284.095 490.105 284.099 530.502 284.078 570.899C284.078 571.039 284.023 571.174 283.925 571.273C283.827 571.372 283.694 571.428 283.556 571.428H256.667C256.517 571.428 256.374 571.367 256.268 571.257C256.162 571.148 256.102 571 256.102 570.846C256.237 526.467 256.198 482.096 255.985 437.732C255.95 430.121 254.647 423.157 252.077 416.838C245.144 399.778 222.345 396.855 206.52 400.636C171.538 408.991 165.99 441.28 165.926 471.693C165.862 504.762 165.855 537.837 165.905 570.92C165.905 570.986 165.89 571.053 165.862 571.114C165.835 571.176 165.794 571.232 165.742 571.279C165.691 571.326 165.63 571.364 165.563 571.389C165.496 571.415 165.424 571.428 165.351 571.428H138.196C138.052 571.428 137.913 571.368 137.812 571.26C137.71 571.153 137.652 571.008 137.652 570.856C137.695 526.633 137.674 482.414 137.589 438.198C137.557 418.3 130.507 402.637 108.634 399.926C94.726 398.197 82.4902 400.766 71.9263 407.636C51.3842 421 47.7209 445.251 47.6996 467.574C47.6641 501.059 47.6605 535.147 47.6889 569.839C47.6889 570.261 47.5206 570.665 47.2211 570.963C46.9215 571.261 46.5152 571.428 46.0916 571.428H23.7178C23.5901 571.427 23.465 571.37 23.3653 571.267C23.2657 571.164 23.198 571.022 23.1747 570.867C22.7168 567.647 23.1747 563.729 23.1747 561.452C23.2386 479.551 22.6209 432.141 23.1747 379.287C23.1775 379.129 23.236 378.978 23.3375 378.867C23.4391 378.756 23.5756 378.694 23.7178 378.694H47.1458C47.2503 378.694 47.3505 378.763 47.4244 378.886C47.4983 379.009 47.5398 379.176 47.5398 379.35L47.6357 399.111C47.6428 399.471 47.7599 399.513 47.9871 399.238C60.5388 384.356 76.6083 375.951 96.1956 374.024C121.721 371.514 148.483 379.117 159.345 404.586Z" fill="white"/>
<path d="M406.63 575.484C368.367 580.408 328.806 567.605 311.927 530.022C284.303 468.527 308.211 372.87 392.935 373.696C433.817 374.098 460.801 396.019 472.814 434.597C475.05 441.788 476.051 449.54 477.254 457.111C478.543 465.181 478.042 473.367 478.287 481.457C478.294 481.688 478.255 481.919 478.172 482.134C478.089 482.35 477.964 482.547 477.804 482.712C477.644 482.878 477.453 483.01 477.241 483.1C477.03 483.19 476.802 483.237 476.573 483.236L331.213 483.258C331.145 483.258 331.078 483.271 331.016 483.296C330.954 483.321 330.898 483.358 330.851 483.405C330.804 483.451 330.768 483.506 330.744 483.567C330.72 483.627 330.709 483.691 330.712 483.755C331.884 514.286 345.802 542.02 377.792 549.497C382.861 550.683 388.207 551.099 393.829 550.746C417.087 549.296 437.331 538.377 444.668 514.995C445.35 512.807 446.049 510.639 446.766 508.493C446.824 508.317 446.932 508.165 447.073 508.056C447.215 507.948 447.383 507.889 447.554 507.889H477.371C477.456 507.89 477.539 507.91 477.614 507.947C477.689 507.984 477.755 508.037 477.807 508.102C477.858 508.168 477.893 508.243 477.91 508.324C477.927 508.405 477.925 508.488 477.904 508.567C468.49 544.361 445.147 570.528 406.63 575.484ZM448.651 458.658C448.14 434.163 435.127 409.108 409.92 401.864C368.154 389.866 336.697 419.062 331.734 458.583C331.725 458.658 331.733 458.734 331.756 458.805C331.779 458.877 331.818 458.943 331.869 458.999C331.92 459.055 331.983 459.1 332.054 459.131C332.124 459.161 332.201 459.177 332.278 459.176H448.086C448.161 459.176 448.236 459.163 448.305 459.136C448.374 459.11 448.437 459.072 448.489 459.023C448.542 458.975 448.583 458.918 448.611 458.855C448.639 458.792 448.652 458.725 448.651 458.658Z" fill="white"/>
<path d="M823.669 549.56C823.655 549.129 823.491 549.066 823.179 549.369C799.165 572.603 764.652 581.457 732.183 573.461C711.087 568.272 692.887 552.906 689.245 531.208C681.61 485.81 716.976 465.223 756.122 460.585C768.251 459.144 780.327 457.387 792.467 455.978C800.276 455.067 807.429 453.518 813.925 451.329C824.18 447.877 823.637 430.722 821.135 423.097C812.338 396.273 775.94 396.199 754.141 402.161C734.238 407.615 728.466 422.133 725.41 440.824C725.382 440.995 725.295 441.151 725.164 441.263C725.034 441.376 724.868 441.438 724.696 441.438H697.275C697.215 441.438 697.155 441.423 697.101 441.394C697.046 441.364 696.997 441.321 696.957 441.268C696.917 441.214 696.887 441.151 696.868 441.082C696.85 441.012 696.843 440.939 696.849 440.867C699.692 400.35 725.346 377.222 765.631 374.109C809.357 370.741 849.876 383.12 850.302 434.089C850.608 469.805 850.828 505.521 850.963 541.236C850.977 545.522 852.666 548.635 856.032 550.577C856.308 550.734 856.65 550.79 857.001 550.736C862.503 549.867 867.834 548.385 872.996 546.288C873.093 546.249 873.198 546.233 873.301 546.24C873.405 546.247 873.505 546.278 873.591 546.329C873.677 546.38 873.748 546.451 873.796 546.534C873.845 546.617 873.87 546.711 873.869 546.807L873.603 569.374C873.6 569.49 873.545 569.612 873.445 569.725C873.345 569.838 873.203 569.937 873.038 570.009C854.466 577.877 824.574 576.786 823.669 549.56ZM720.266 508.154C711.8 530.657 726.389 546.489 748.135 550.291C755.291 551.551 764.503 550.545 771.723 549.56C790.359 547.019 811.444 536.513 818.856 518.013C823.573 506.248 823.051 489.156 822.508 475.675C822.504 475.569 822.474 475.466 822.423 475.373C822.371 475.28 822.299 475.2 822.211 475.14C822.124 475.079 822.023 475.04 821.918 475.024C821.812 475.009 821.705 475.018 821.603 475.05C809.179 479.209 796.223 481.768 782.734 482.728C762.777 484.158 728.945 485.121 720.266 508.154Z" fill="white"/>
<path d="M648.491 549.168C648.47 548.441 648.232 548.364 647.778 548.935C630.633 570.782 598.962 578.343 572.68 575.918C529.935 571.979 502.204 536.482 497.295 495.997C489.543 431.897 512.949 371.006 589.175 373.939C611.208 374.786 634.157 386.266 647.735 403.612C648.416 404.48 648.754 404.381 648.747 403.315L648.597 379.223C648.597 379.083 648.677 378.948 648.819 378.849C648.961 378.75 649.153 378.694 649.354 378.694H675.976C676.11 378.694 676.238 378.757 676.334 378.868C676.43 378.979 676.485 379.129 676.487 379.287C676.935 439.543 676.896 499.795 676.37 560.044C676.243 574.34 673.58 589.674 667.777 602.753C650.461 641.787 610.889 650.004 571.892 647.103C539.306 644.678 502.364 625.658 500.926 588.562C500.924 588.487 500.932 588.413 500.951 588.342C500.969 588.272 500.999 588.208 501.036 588.154C501.074 588.099 501.12 588.056 501.17 588.026C501.221 587.996 501.276 587.981 501.331 587.98L529.285 588.075C529.416 588.074 529.547 588.128 529.659 588.227C529.77 588.327 529.856 588.467 529.903 588.626C535.046 606.417 543.97 615.979 562.191 619.855C590.379 625.849 624.073 622.121 639.162 594.577C646.308 581.531 648.981 564.375 648.491 549.168ZM528.54 445.431C519.956 480.303 526.112 535.243 568.069 547.929C586.13 553.394 605.575 551.022 620.622 539.691C644.604 521.646 650.355 491.221 647.799 463.084C645.179 434.29 630.004 406.058 599.303 400.392C566.12 394.272 536.601 412.645 528.54 445.431Z" fill="white"/>
<path d="M762.745 583.352H734.29C734.132 583.352 734.003 583.48 734.003 583.638V854.737C734.003 854.895 734.132 855.023 734.29 855.023H762.745C762.904 855.023 763.032 854.895 763.032 854.737V583.638C763.032 583.48 762.904 583.352 762.745 583.352Z" fill="white"/>
<path fill-rule="evenodd" clip-rule="evenodd" d="M347.511 683.69C347.518 684.862 347.866 684.975 348.554 684.029C362.281 665.296 386.433 654.039 409.244 652.906C483.404 649.221 509.442 711.637 502.616 774.191C498.42 812.685 476.514 849.135 436.101 857.893C405.325 864.575 369.629 856.982 348.682 832.075C347.858 831.093 347.447 831.245 347.447 832.53L347.404 1032.83C347.405 1032.92 347.387 1033.01 347.35 1033.08C347.313 1033.16 347.259 1033.23 347.191 1033.29C347.123 1033.35 347.043 1033.4 346.955 1033.42C346.867 1033.45 346.774 1033.47 346.68 1033.46C337.778 1032.9 328.878 1032.98 319.983 1033.68C319.916 1033.69 319.848 1033.68 319.784 1033.65C319.72 1033.62 319.661 1033.58 319.611 1033.53C319.561 1033.47 319.521 1033.41 319.493 1033.33C319.466 1033.26 319.451 1033.18 319.45 1033.1L319.482 658.529C319.482 658.318 319.539 658.116 319.641 657.967C319.743 657.819 319.881 657.735 320.025 657.735H346.914C347.059 657.736 347.198 657.82 347.302 657.969C347.405 658.117 347.465 658.318 347.468 658.529L347.511 683.69ZM433.715 829.882C416.868 836.512 399.762 835.622 382.397 827.214C378.578 825.372 374.603 821.577 371.17 818.3L371.045 818.181C351.089 799.109 346.286 771.586 348.352 744.825C351.419 704.965 377.999 673.715 420.915 679.698C447.165 683.352 464.843 703.271 470.732 728.03C472.116 733.854 473.004 740.854 473.394 749.029C474.864 779.909 466.217 817.101 433.715 829.882Z" fill="white"/>
<path d="M599.057 858.952C561.125 853.731 534.311 827.15 525.291 790.775C514.376 746.763 523.928 687.185 568.431 663.454C587.343 653.372 609.621 651.148 630.653 653.88C696.561 662.426 715.665 731.546 703.823 786.962C692.887 838.164 651.025 866.11 599.057 858.952ZM574.181 819.6C591.071 834.976 618.215 838.386 638.896 829.173C668.798 815.851 678.446 781.657 676.753 751.391C675.688 732.308 671.791 711.245 658.479 696.483C643.837 680.259 619.887 675.907 599.175 680.662C580.262 685.004 566.184 697.531 559.038 715.471C546.653 746.53 547.718 795.498 574.181 819.6Z" fill="white"/>
<path d="M897.147 859.449C840.749 866.29 797.13 831.227 790.816 775.631C785.832 731.81 798.174 680.757 842.528 660.71C861.376 652.196 884.389 651.264 904.676 654.558C962.788 664.014 981.126 724.143 976.014 774.222C971.52 818.308 943.076 853.879 897.147 859.449ZM827.523 797.636C845.36 842.474 908.414 847.26 933.428 806.172C948.017 782.197 948.199 747.388 940.19 721.485C932.949 698.029 915.91 681.678 890.693 679.285C822.614 672.815 808.791 750.554 827.523 797.636Z" fill="white"/>
<path d="M669.594 983.636C669.594 982.711 669.246 982.602 668.551 983.308C645.016 1007.17 606.988 998.546 599.64 964.807C593.645 937.284 602.036 899.32 637.434 898.547C649.844 898.272 660.393 902.419 669.083 910.99C669.417 911.322 669.583 911.269 669.583 910.831V866.354C669.583 866.143 669.668 865.941 669.817 865.792C669.967 865.643 670.17 865.56 670.382 865.56H682.629C682.761 865.56 682.889 865.615 682.982 865.715C683.076 865.814 683.129 865.949 683.129 866.089L683.108 993.961C683.108 994.101 683.057 994.236 682.967 994.335C682.878 994.435 682.756 994.49 682.629 994.49L670.382 994.501C670.173 994.501 669.973 994.416 669.825 994.265C669.677 994.114 669.594 993.91 669.594 993.696V983.636ZM613.367 961.387C616.881 977.335 632.684 987.808 648.392 982.757C676.835 973.597 676.229 919.642 647.508 912.134C635.687 909.052 624.005 913.86 617.744 924.1C611.216 934.753 610.832 949.833 613.367 961.387Z" fill="white"/>
<path d="M396.457 909.507C396.436 910.411 396.731 910.531 397.341 909.867C403.688 902.977 411.245 899.221 420.013 898.599C432.558 897.71 443.43 901.353 448.947 913.192C449.167 913.672 449.426 913.69 449.724 913.245C458.009 901.003 472.62 896.354 486.634 899.087C505.035 902.676 507.623 920.012 507.4 936.733C507.137 955.731 507.087 974.729 507.25 993.728C507.25 993.93 507.188 994.124 507.076 994.267C506.964 994.41 506.812 994.49 506.654 994.49H494.674C494.53 994.49 494.392 994.403 494.29 994.248C494.188 994.093 494.131 993.883 494.131 993.664C494.195 971.92 494.188 950.203 494.109 928.516C494.056 914.304 482.96 908.882 470.255 912.112C455.464 915.861 452.131 931.978 452.099 945.205C452.063 961.457 452.06 977.712 452.088 993.971C452.088 994.103 452.052 994.23 451.988 994.323C451.924 994.416 451.838 994.469 451.747 994.469L439.299 994.49C439.166 994.49 439.039 994.416 438.945 994.285C438.851 994.154 438.798 993.976 438.798 993.791C438.777 973.727 438.755 953.688 438.734 933.673C438.723 923.676 437.233 913.182 424.837 911.508C417.092 910.464 410.574 912.479 405.285 917.555C400.184 922.458 396.692 931.692 396.692 938.618C396.706 957.073 396.709 975.524 396.702 993.971C396.702 994.109 396.646 994.241 396.546 994.338C396.446 994.435 396.311 994.49 396.17 994.49H383.923C383.782 994.49 383.647 994.427 383.547 994.316C383.447 994.205 383.391 994.054 383.391 993.897V901.035C383.391 900.967 383.406 900.9 383.437 900.838C383.467 900.776 383.512 900.719 383.568 900.672C383.625 900.624 383.692 900.587 383.766 900.562C383.84 900.537 383.918 900.525 383.998 900.527L396.17 900.739C396.236 900.74 396.3 900.755 396.361 900.784C396.421 900.813 396.475 900.855 396.521 900.907C396.566 900.959 396.602 901.021 396.626 901.088C396.65 901.155 396.661 901.227 396.66 901.3L396.457 909.507Z" fill="white"/>
<path d="M753.143 984.8C753.107 984.342 752.919 984.264 752.578 984.567C740.055 995.793 722.91 999.774 706.862 993.961C698.498 990.925 693.185 985.129 690.92 976.572C685.105 954.598 700.696 943.839 720.375 940.726C728.639 939.413 736.917 938.209 745.209 937.115C747.076 936.868 748.979 935.982 750.917 934.457C751.194 934.243 751.399 933.955 751.503 933.631C753.59 927.277 752.046 919.08 746.551 914.834C739.81 909.613 722.782 910.27 716.094 914.781C709.726 919.08 709.29 924.185 707.064 930.983C707.014 931.128 706.917 931.255 706.785 931.344C706.653 931.433 706.494 931.481 706.329 931.481H694.083C694.017 931.482 693.952 931.467 693.891 931.438C693.831 931.409 693.777 931.367 693.732 931.313C693.687 931.26 693.652 931.196 693.63 931.127C693.608 931.057 693.599 930.983 693.603 930.909C695.158 906.087 715.317 896.164 737.968 898.631C750.608 900.019 760.512 904.911 764.622 916.962C765.652 919.97 766.177 924.65 766.198 931.004C766.241 947.242 766.255 963.688 766.241 980.342C766.241 982.757 767.384 983.883 769.67 983.72C771.913 983.558 773.951 982.898 775.782 981.74C775.856 981.695 775.941 981.675 776.028 981.682C776.116 981.689 776.203 981.722 776.283 981.779C776.362 981.836 776.431 981.915 776.483 982.008C776.536 982.101 776.569 982.205 776.581 982.312C777.014 985.849 777.028 989.379 776.624 992.902C776.607 993.049 776.534 993.2 776.413 993.338C776.291 993.475 776.125 993.595 775.932 993.685C767.657 997.54 753.931 996.449 753.143 984.8ZM704.05 969.339C703.816 985.362 724.89 985.351 735.092 981.899C744.854 978.595 750.516 972.16 752.078 962.594C752.727 958.591 752.312 952.999 752.461 948.329C752.462 948.269 752.449 948.208 752.422 948.154C752.395 948.099 752.356 948.052 752.307 948.016C752.258 947.98 752.201 947.955 752.14 947.945C752.08 947.936 752.019 947.94 751.96 947.959C742.078 950.955 734.688 951.411 725.54 952.3C715.423 953.275 704.231 957.415 704.05 969.339Z" fill="white"/>
<path d="M534.546 992.383C505.868 979.23 503.089 930.475 524.046 909.793C536.442 897.562 556.6 895.507 572.276 902.391C599.729 914.442 602.743 958.019 586.897 980.279C574.906 997.116 552.735 1000.72 534.546 992.383ZM535.292 977.229C543.332 983.837 552.213 985.489 562.063 982.682C575.588 978.828 580.912 964.849 581.615 951.612C582.51 934.753 579.059 914.844 558.762 911.667C523.258 906.108 517.987 953.741 531.618 973.258C532.661 974.747 533.886 976.071 535.292 977.229Z" fill="white"/>
<path fill-rule="evenodd" clip-rule="evenodd" d="M1000 0H0V1059.7H1000V0ZM970.149 29.8507H29.8507V1029.85H970.149V29.8507Z" fill="white"/>
</svg>
