<svg width="1000" height="1061" viewBox="0 0 1000 1061" fill="none" xmlns="http://www.w3.org/2000/svg">
<path d="M159.345 405.049C159.693 405.86 160.111 405.899 160.601 405.165C170.388 390.689 184.019 380.883 201.11 376.583C229.426 369.456 265.133 375.291 277.198 405.377C282.725 419.165 284.056 433.683 284.067 450.172C284.095 490.568 284.099 530.965 284.078 571.361C284.078 571.502 284.023 571.636 283.925 571.736C283.827 571.835 283.694 571.891 283.556 571.891H256.667C256.517 571.891 256.374 571.829 256.268 571.72C256.162 571.611 256.102 571.463 256.102 571.308C256.237 526.93 256.198 482.559 255.985 438.195C255.95 430.584 254.647 423.619 252.077 417.301C245.144 400.241 222.345 397.318 206.52 401.099C171.538 409.454 165.99 441.742 165.926 472.156C165.862 505.224 165.855 538.3 165.905 571.382C165.905 571.449 165.89 571.515 165.862 571.577C165.835 571.638 165.794 571.695 165.742 571.742C165.691 571.789 165.63 571.826 165.563 571.852C165.496 571.877 165.424 571.891 165.351 571.891H138.196C138.052 571.891 137.913 571.83 137.812 571.723C137.71 571.616 137.652 571.47 137.652 571.319C137.695 527.096 137.674 482.876 137.589 438.661C137.557 418.762 130.507 403.1 108.634 400.389C94.726 398.659 82.4902 401.229 71.9263 408.098C51.3842 421.463 47.7209 445.713 47.6996 468.037C47.6641 501.521 47.6605 535.61 47.6889 570.302C47.6889 570.723 47.5206 571.127 47.2211 571.425C46.9215 571.723 46.5152 571.891 46.0916 571.891H23.7178C23.5901 571.89 23.465 571.833 23.3653 571.73C23.2657 571.627 23.198 571.485 23.1747 571.329C22.7168 568.11 23.1747 564.192 23.1747 561.915C23.2386 480.014 22.6209 432.603 23.1747 379.75C23.1775 379.592 23.236 379.441 23.3375 379.33C23.4391 379.219 23.5756 379.157 23.7178 379.157H47.1458C47.2503 379.157 47.3505 379.226 47.4244 379.349C47.4983 379.472 47.5398 379.639 47.5398 379.813L47.6357 399.574C47.6428 399.934 47.7599 399.976 47.9871 399.701C60.5388 384.818 76.6083 376.414 96.1956 374.486C121.721 371.977 148.483 379.58 159.345 405.049Z" fill="#E02027"/>
<path d="M406.63 575.947C368.367 580.871 328.806 568.068 311.927 530.485C284.303 468.99 308.211 373.332 392.935 374.158C433.817 374.561 460.801 396.482 472.814 435.06C475.05 442.251 476.051 450.002 477.254 457.574C478.543 465.643 478.042 473.829 478.287 481.92C478.294 482.151 478.255 482.381 478.172 482.597C478.089 482.813 477.964 483.009 477.804 483.175C477.644 483.341 477.453 483.473 477.241 483.563C477.03 483.653 476.802 483.699 476.573 483.699L331.213 483.72C331.145 483.72 331.078 483.733 331.016 483.759C330.954 483.784 330.898 483.821 330.851 483.867C330.804 483.914 330.768 483.969 330.744 484.029C330.72 484.089 330.709 484.154 330.712 484.218C331.884 514.748 345.802 542.483 377.792 549.959C382.861 551.145 388.207 551.562 393.829 551.209C417.087 549.758 437.331 538.84 444.668 515.458C445.35 513.269 446.049 511.102 446.766 508.956C446.824 508.78 446.932 508.627 447.073 508.519C447.215 508.41 447.383 508.352 447.554 508.352H477.371C477.456 508.353 477.539 508.373 477.614 508.41C477.689 508.446 477.755 508.5 477.807 508.565C477.858 508.63 477.893 508.706 477.91 508.787C477.927 508.867 477.925 508.95 477.904 509.03C468.49 544.823 445.147 570.991 406.63 575.947ZM448.651 459.12C448.14 434.626 435.127 409.571 409.92 402.327C368.154 390.329 336.697 419.525 331.734 459.046C331.725 459.121 331.733 459.196 331.756 459.268C331.779 459.34 331.818 459.406 331.869 459.462C331.92 459.518 331.983 459.563 332.054 459.593C332.124 459.624 332.201 459.639 332.278 459.639H448.086C448.161 459.639 448.236 459.625 448.305 459.599C448.374 459.573 448.437 459.534 448.489 459.486C448.542 459.438 448.583 459.381 448.611 459.318C448.639 459.255 448.652 459.188 448.651 459.12Z" fill="#E02027"/>
<path d="M823.669 550.023C823.655 549.592 823.491 549.529 823.179 549.832C799.165 573.066 764.652 581.919 732.183 573.924C711.087 568.735 692.887 553.369 689.245 531.671C681.61 486.272 716.976 465.686 756.122 461.047C768.251 459.607 780.327 457.849 792.467 456.441C800.276 455.53 807.429 453.98 813.925 451.792C824.18 448.34 823.637 431.184 821.135 423.56C812.338 396.736 775.94 396.661 754.141 402.623C734.238 408.077 728.466 422.596 725.41 441.287C725.382 441.458 725.295 441.613 725.164 441.726C725.034 441.838 724.868 441.9 724.696 441.901H697.275C697.215 441.901 697.155 441.886 697.101 441.856C697.046 441.827 696.997 441.784 696.957 441.73C696.917 441.677 696.887 441.613 696.868 441.544C696.85 441.475 696.843 441.402 696.849 441.329C699.692 400.813 725.346 377.685 765.631 374.571C809.357 371.204 849.876 383.583 850.302 434.552C850.608 470.268 850.828 505.983 850.963 541.699C850.977 545.984 852.666 549.098 856.032 551.039C856.308 551.197 856.65 551.253 857.001 551.198C862.503 550.33 867.834 548.847 872.996 546.751C873.093 546.712 873.198 546.695 873.301 546.703C873.405 546.71 873.505 546.74 873.591 546.791C873.677 546.843 873.748 546.913 873.796 546.997C873.845 547.08 873.87 547.174 873.869 547.269L873.603 569.836C873.6 569.952 873.545 570.074 873.445 570.187C873.345 570.3 873.203 570.399 873.038 570.472C854.466 578.34 824.574 577.249 823.669 550.023ZM720.266 508.617C711.8 531.12 726.389 546.952 748.135 550.753C755.291 552.014 764.503 551.008 771.723 550.023C790.359 547.481 811.444 536.976 818.856 518.476C823.573 506.711 823.051 489.619 822.508 476.138C822.504 476.032 822.474 475.928 822.423 475.835C822.371 475.743 822.299 475.663 822.211 475.602C822.124 475.542 822.023 475.502 821.918 475.487C821.812 475.471 821.705 475.48 821.603 475.513C809.179 479.671 796.223 482.23 782.734 483.191C762.777 484.62 728.945 485.584 720.266 508.617Z" fill="#E02027"/>
<path d="M648.491 549.631C648.47 548.904 648.232 548.826 647.778 549.398C630.633 571.245 598.962 578.806 572.68 576.381C529.935 572.441 502.204 536.944 497.295 496.46C489.543 432.36 512.949 371.468 589.175 374.402C611.208 375.249 634.157 386.728 647.735 404.074C648.416 404.943 648.754 404.844 648.747 403.778L648.597 379.686C648.597 379.546 648.677 379.411 648.819 379.312C648.961 379.212 649.153 379.157 649.354 379.157H675.976C676.11 379.157 676.238 379.22 676.334 379.33C676.43 379.441 676.485 379.592 676.487 379.75C676.935 440.006 676.896 500.258 676.37 560.507C676.243 574.803 673.58 590.137 667.777 603.215C650.461 642.249 610.889 650.467 571.892 647.565C539.306 645.14 502.364 626.121 500.926 589.025C500.924 588.95 500.932 588.875 500.951 588.805C500.969 588.735 500.999 588.671 501.036 588.616C501.074 588.562 501.12 588.519 501.17 588.489C501.221 588.459 501.276 588.443 501.331 588.443L529.285 588.538C529.416 588.537 529.547 588.59 529.659 588.69C529.77 588.789 529.856 588.929 529.903 589.089C535.046 606.879 543.97 616.442 562.191 620.318C590.379 626.312 624.073 622.584 639.162 595.04C646.308 581.993 648.981 564.838 648.491 549.631ZM528.54 445.893C519.956 480.766 526.112 535.705 568.069 548.392C586.13 553.856 605.575 551.484 620.622 540.153C644.604 522.108 650.355 491.684 647.799 463.547C645.179 434.753 630.004 406.521 599.303 400.855C566.12 394.734 536.601 413.107 528.54 445.893Z" fill="#E02027"/>
<path d="M762.745 583.815H734.29C734.132 583.815 734.003 583.943 734.003 584.101V855.199C734.003 855.357 734.132 855.485 734.29 855.485H762.745C762.904 855.485 763.032 855.357 763.032 855.199V584.101C763.032 583.943 762.904 583.815 762.745 583.815Z" fill="#E02027"/>
<path fill-rule="evenodd" clip-rule="evenodd" d="M347.511 684.153C347.518 685.325 347.866 685.438 348.554 684.492C362.281 665.759 386.433 654.502 409.244 653.369C483.404 649.683 509.442 712.1 502.616 774.653C498.42 813.147 476.514 849.597 436.101 858.355C405.325 865.037 369.629 857.444 348.682 832.537C347.858 831.556 347.447 831.708 347.447 832.993L347.404 1033.3C347.405 1033.38 347.387 1033.47 347.35 1033.55C347.313 1033.63 347.259 1033.7 347.191 1033.75C347.123 1033.81 347.043 1033.86 346.955 1033.89C346.867 1033.92 346.774 1033.93 346.68 1033.92C337.778 1033.36 328.878 1033.44 319.983 1034.14C319.916 1034.15 319.848 1034.14 319.784 1034.11C319.72 1034.09 319.661 1034.04 319.611 1033.99C319.561 1033.94 319.521 1033.87 319.493 1033.8C319.466 1033.72 319.451 1033.64 319.45 1033.56L319.482 658.992C319.482 658.781 319.539 658.579 319.641 658.43C319.743 658.281 319.881 658.197 320.025 658.197H346.914C347.059 658.199 347.198 658.283 347.302 658.431C347.405 658.58 347.465 658.781 347.468 658.992L347.511 684.153ZM433.715 830.345C416.868 836.974 399.762 836.085 382.397 827.677C378.578 825.835 374.603 822.04 371.17 818.762L371.045 818.643C351.089 799.571 346.286 772.048 348.352 745.288C351.419 705.428 377.999 674.178 420.915 680.161C447.165 683.814 464.843 703.734 470.732 728.493C472.116 734.317 473.004 741.317 473.394 749.492C474.864 780.372 466.217 817.563 433.715 830.345Z" fill="#E02027"/>
<path d="M599.057 859.414C561.125 854.193 534.311 827.613 525.291 791.237C514.376 747.226 523.928 687.648 568.431 663.916C587.343 653.835 609.621 651.611 630.653 654.343C696.561 662.889 715.665 732.008 703.823 787.425C692.887 838.626 651.025 866.573 599.057 859.414ZM574.181 820.063C591.071 835.439 618.215 838.849 638.896 829.636C668.798 816.314 678.446 782.119 676.753 751.854C675.688 732.771 671.791 711.708 658.479 696.946C643.837 680.722 619.887 676.37 599.175 681.125C580.262 685.466 566.184 697.994 559.038 715.933C546.653 746.993 547.718 795.96 574.181 820.063Z" fill="#E02027"/>
<path d="M897.147 859.912C840.749 866.753 797.13 831.69 790.816 776.093C785.832 732.273 798.174 681.22 842.528 661.173C861.376 652.659 884.389 651.727 904.676 655.02C962.788 664.477 981.126 724.606 976.014 774.685C971.52 818.77 943.076 854.341 897.147 859.912ZM827.523 798.099C845.36 842.936 908.414 847.723 933.428 806.634C948.017 782.659 948.199 747.851 940.19 721.948C932.949 698.492 915.91 682.141 890.693 679.748C822.614 673.277 808.791 751.017 827.523 798.099Z" fill="#E02027"/>
<path d="M669.594 984.098C669.594 983.174 669.246 983.064 668.551 983.77C645.016 1007.63 606.988 999.009 599.64 965.27C593.645 937.747 602.036 899.783 637.434 899.01C649.844 898.734 660.393 902.882 669.083 911.452C669.417 911.784 669.583 911.731 669.583 911.294V866.817C669.583 866.606 669.668 866.404 669.817 866.255C669.967 866.106 670.17 866.022 670.382 866.022H682.629C682.761 866.022 682.889 866.078 682.982 866.177C683.076 866.277 683.129 866.411 683.129 866.552L683.108 994.424C683.108 994.564 683.057 994.699 682.967 994.798C682.878 994.897 682.756 994.953 682.629 994.953L670.382 994.964C670.173 994.964 669.973 994.879 669.825 994.728C669.677 994.577 669.594 994.372 669.594 994.159V984.098ZM613.367 961.849C616.881 977.798 632.684 988.271 648.392 983.219C676.835 974.059 676.229 920.104 647.508 912.596C635.687 909.515 624.005 914.322 617.744 924.563C611.216 935.216 610.832 950.296 613.367 961.849Z" fill="#E02027"/>
<path d="M396.457 909.97C396.436 910.873 396.731 910.993 397.341 910.33C403.688 903.439 411.245 899.683 420.013 899.062C432.558 898.173 443.43 901.815 448.947 913.655C449.167 914.135 449.426 914.153 449.724 913.708C458.009 901.466 472.62 896.817 486.634 899.549C505.035 903.139 507.623 920.475 507.4 937.196C507.137 956.194 507.087 975.192 507.25 994.19C507.25 994.392 507.188 994.586 507.076 994.729C506.964 994.872 506.812 994.953 506.654 994.953H494.674C494.53 994.953 494.392 994.866 494.29 994.711C494.188 994.556 494.131 994.346 494.131 994.127C494.195 972.382 494.188 950.666 494.109 928.978C494.056 914.767 482.96 909.345 470.255 912.575C455.464 916.323 452.131 932.441 452.099 945.668C452.063 961.92 452.06 978.175 452.088 994.434C452.088 994.566 452.052 994.692 451.988 994.786C451.924 994.879 451.838 994.931 451.747 994.931L439.299 994.953C439.166 994.953 439.039 994.879 438.945 994.748C438.851 994.617 438.798 994.439 438.798 994.254C438.777 974.19 438.755 954.15 438.734 934.135C438.723 924.139 437.233 913.644 424.837 911.971C417.092 910.926 410.574 912.942 405.285 918.018C400.184 922.921 396.692 932.155 396.692 939.081C396.706 957.535 396.709 975.986 396.702 994.434C396.702 994.571 396.646 994.703 396.546 994.801C396.446 994.898 396.311 994.953 396.17 994.953H383.923C383.782 994.953 383.647 994.89 383.547 994.779C383.447 994.668 383.391 994.517 383.391 994.36V901.498C383.391 901.43 383.406 901.363 383.437 901.301C383.467 901.238 383.512 901.182 383.568 901.134C383.625 901.087 383.692 901.05 383.766 901.025C383.84 901 383.918 900.988 383.998 900.989L396.17 901.201C396.236 901.202 396.3 901.218 396.361 901.247C396.421 901.276 396.475 901.317 396.521 901.37C396.566 901.422 396.602 901.483 396.626 901.551C396.65 901.618 396.661 901.69 396.66 901.762L396.457 909.97Z" fill="#E02027"/>
<path d="M753.143 985.263C753.107 984.804 752.919 984.727 752.578 985.03C740.055 996.255 722.91 1000.24 706.862 994.423C698.498 991.388 693.185 985.591 690.92 977.035C685.105 955.061 700.696 944.302 720.375 941.188C728.639 939.875 736.917 938.672 745.209 937.577C747.076 937.33 748.979 936.444 750.917 934.919C751.194 934.706 751.399 934.418 751.503 934.093C753.59 927.739 752.046 919.543 746.551 915.296C739.81 910.076 722.782 910.732 716.094 915.243C709.726 919.543 709.29 924.647 707.064 931.446C707.014 931.591 706.917 931.717 706.785 931.806C706.653 931.896 706.494 931.944 706.329 931.944H694.083C694.017 931.944 693.952 931.93 693.891 931.901C693.831 931.872 693.777 931.83 693.732 931.776C693.687 931.722 693.652 931.659 693.63 931.589C693.608 931.52 693.599 931.446 693.603 931.372C695.158 906.549 715.317 896.627 737.968 899.094C750.608 900.481 760.512 905.374 764.622 917.425C765.652 920.432 766.177 925.113 766.198 931.467C766.241 947.705 766.255 964.151 766.241 980.805C766.241 983.219 767.384 984.345 769.67 984.183C771.913 984.021 773.951 983.361 775.782 982.203C775.856 982.158 775.941 982.138 776.028 982.145C776.116 982.151 776.203 982.185 776.283 982.242C776.362 982.299 776.431 982.377 776.483 982.47C776.536 982.563 776.569 982.668 776.581 982.775C777.014 986.312 777.028 989.841 776.624 993.364C776.607 993.512 776.534 993.663 776.413 993.8C776.291 993.938 776.125 994.058 775.932 994.148C767.657 998.003 753.931 996.912 753.143 985.263ZM704.05 969.802C703.816 985.824 724.89 985.814 735.092 982.362C744.854 979.058 750.516 972.622 752.078 963.056C752.727 959.053 752.312 953.462 752.461 948.792C752.462 948.731 752.449 948.671 752.422 948.617C752.395 948.562 752.356 948.515 752.307 948.478C752.258 948.442 752.201 948.418 752.14 948.408C752.08 948.398 752.019 948.403 751.96 948.421C742.078 951.418 734.688 951.873 725.54 952.763C715.423 953.737 704.231 957.878 704.05 969.802Z" fill="#E02027"/>
<path d="M534.546 992.845C505.868 979.693 503.089 930.937 524.046 910.256C536.442 898.024 556.6 895.97 572.276 902.853C599.729 914.905 602.743 958.482 586.897 980.741C574.906 997.579 552.735 1001.18 534.546 992.845ZM535.292 977.691C543.332 984.299 552.213 985.951 562.063 983.145C575.588 979.29 580.912 965.312 581.615 952.075C582.51 935.216 579.059 915.307 558.762 912.13C523.258 906.57 517.987 954.203 531.618 973.72C532.661 975.21 533.886 976.534 535.292 977.691Z" fill="#E02027"/>
<path fill-rule="evenodd" clip-rule="evenodd" d="M1000 0.462646H0V1060.16H1000V0.462646ZM970.149 30.3134H29.8507V1030.31H970.149V30.3134Z" fill="#E02027"/>
</svg>
