<?xml version="1.0" encoding="UTF-8" standalone="no"?>
<!DOCTYPE svg PUBLIC "-//W3C//DTD SVG 1.1//EN" "http://www.w3.org/Graphics/SVG/1.1/DTD/svg11.dtd">
<svg xmlns="http://www.w3.org/2000/svg" version="1.1" viewBox="0 0 67 67">
<path fill="#ffffff" d="
  M 21.81 0.00
  L 45.01 0.14
  C 58.08 -0.30 65.39 7.01 66.14 19.38
  Q 66.99 33.41 66.16 47.48
  C 65.35 61.21 56.89 65.55 44.47 66.07
  Q 31.05 66.64 19.52 65.94
  Q 1.66 64.85 0.46 46.75
  Q -0.01 39.67 0.25 25.96
  C 0.53 10.72 4.04 -0.02 21.81 0.00
  Z
  M 60.38 19.13
  A 13.21 13.21 0.0 0 0 47.17 5.92
  L 19.33 5.92
  A 13.21 13.21 0.0 0 0 6.12 19.13
  L 6.12 46.93
  A 13.21 13.21 0.0 0 0 19.33 60.14
  L 47.17 60.14
  A 13.21 13.21 0.0 0 0 60.38 46.93
  L 60.38 19.13
  Z"
/>
<circle fill="#ffffff" cx="51.00" cy="15.43" r="3.94"/>
<path fill="#ffffff" d="
  M 50.34 33.02
  A 16.96 16.96 0.0 0 1 33.38 49.98
  A 16.96 16.96 0.0 0 1 16.42 33.02
  A 16.96 16.96 0.0 0 1 33.38 16.06
  A 16.96 16.96 0.0 0 1 50.34 33.02
  Z
  M 44.29 33.03
  A 10.95 10.95 0.0 0 0 33.34 22.08
  A 10.95 10.95 0.0 0 0 22.39 33.03
  A 10.95 10.95 0.0 0 0 33.34 43.98
  A 10.95 10.95 0.0 0 0 44.29 33.03
  Z"
/>
</svg>
