<?xml version="1.0" encoding="UTF-8" standalone="no"?>
<!DOCTYPE svg PUBLIC "-//W3C//DTD SVG 1.1//EN" "http://www.w3.org/Graphics/SVG/1.1/DTD/svg11.dtd">
<svg xmlns="http://www.w3.org/2000/svg" version="1.1" viewBox="0 0 64 65">
<path fill="#ffffff" d="
  M 43.44 65.00
  L 19.94 65.00
  C 3.97 64.75 0.59 54.91 0.25 41.00
  C -0.15 24.64 -3.05 3.97 18.07 2.06
  Q 23.46 1.58 42.71 2.08
  C 53.71 2.37 61.31 5.80 63.28 17.49
  Q 64.12 22.43 63.46 45.02
  Q 62.88 64.83 43.44 65.00
  Z
  M 57.6563 19.8250
  A 12.45 12.45 0.0 0 0 45.1846 7.3967
  L 18.4447 7.4434
  A 12.45 12.45 0.0 0 0 6.0164 19.9151
  L 6.0637 46.9950
  A 12.45 12.45 0.0 0 0 18.5354 59.4233
  L 45.2753 59.3766
  A 12.45 12.45 0.0 0 0 57.7036 46.9049
  L 57.6563 19.8250
  Z"
/>
<path fill="#ffffff" d="
  M 21.51 19.35
  L 45.42 33.09
  A 0.34 0.34 -49.7 0 1 45.42 33.67
  L 21.51 47.41
  A 0.34 0.34 66.0 0 1 21.00 47.11
  L 21.00 19.65
  A 0.34 0.34 3.3 0 1 21.51 19.35
  Z"
/>
</svg>
