<?xml version="1.0" encoding="UTF-8" standalone="no"?>
<!DOCTYPE svg PUBLIC "-//W3C//DTD SVG 1.1//EN" "http://www.w3.org/Graphics/SVG/1.1/DTD/svg11.dtd">
<svg xmlns="http://www.w3.org/2000/svg" version="1.1" viewBox="0 0 63 63">
<g stroke-width="2.00" fill="none" stroke-linecap="butt">
<path stroke="#90d5a5" vector-effect="non-scaling-stroke" d="
  M 41.93 50.13
  C 67.90 36.95 48.62 -2.15 22.23 10.20
  C 10.32 15.78 5.97 30.61 12.84 42.28
  A 1.12 0.43 -69.0 0 1 12.84 43.07
  L 10.51 52.00
  A 0.39 0.38 -0.3 0 0 10.99 52.46
  L 19.24 50.24
  A 3.93 2.95 -34.9 0 1 21.53 50.32
  Q 32.51 54.90 41.93 50.13"
/>
<path stroke="#90d5a5" vector-effect="non-scaling-stroke" d="
  M 21.20 47.49
  C 40.84 57.71 61.33 36.08 47.72 18.15
  C 39.43 7.23 23.44 8.16 15.63 18.95
  Q 8.33 29.03 15.25 41.84
  A 1.37 0.69 51.4 0 1 15.44 42.74
  L 13.85 48.33
  Q 13.59 49.25 14.51 49.01
  L 20.26 47.51
  A 1.37 0.50 -21.4 0 1 21.20 47.49"
/>
<path stroke="#90d5a5" vector-effect="non-scaling-stroke" d="
  M 42.57 35.91
  L 38.19 34.06
  A 1.42 0.73 33.6 0 0 37.22 33.95
  Q 35.75 34.53 34.84 35.85
  A 0.68 0.60 31.6 0 1 34.00 36.00
  Q 29.02 33.23 26.24 28.26
  A 0.77 0.59 -39.0 0 1 26.44 27.44
  L 28.07 25.81
  A 0.95 0.64 -37.6 0 0 28.36 24.95
  L 26.24 19.47
  Q 25.39 17.26 23.03 19.03
  C 14.07 25.77 28.88 38.98 34.40 41.21
  Q 36.71 42.14 39.75 41.70
  Q 42.82 41.24 43.44 38.25
  A 2.23 1.63 -74.3 0 0 42.57 35.91"
/>
</g>
<path fill="#20ab4b" d="
  M 20.81 0.00
  L 28.06 0.00
  Q 41.83 0.46 55.61 0.22
  C 58.72 0.16 62.01 1.73 62.01 5.00
  Q 62.00 30.48 61.99 55.94
  C 61.99 60.55 59.53 62.00 55.08 62.01
  Q 30.39 62.01 5.73 61.99
  C 2.62 61.98 0.87 60.48 0.00 57.69
  L 0.00 4.44
  C 1.05 0.94 3.28 0.24 6.85 0.29
  Q 13.84 0.38 20.81 0.00
  Z
  M 41.93 50.13
  C 67.90 36.95 48.62 -2.15 22.23 10.20
  C 10.32 15.78 5.97 30.61 12.84 42.28
  A 1.12 0.43 -69.0 0 1 12.84 43.07
  L 10.51 52.00
  A 0.39 0.38 -0.3 0 0 10.99 52.46
  L 19.24 50.24
  A 3.93 2.95 -34.9 0 1 21.53 50.32
  Q 32.51 54.90 41.93 50.13
  Z"
/>
<path fill="#ffffff" d="
  M 22.23 10.20
  C 48.62 -2.15 67.90 36.95 41.93 50.13
  Q 32.51 54.90 21.53 50.32
  A 3.93 2.95 -34.9 0 0 19.24 50.24
  L 10.99 52.46
  A 0.39 0.38 -0.3 0 1 10.51 52.00
  L 12.84 43.07
  A 1.12 0.43 -69.0 0 0 12.84 42.28
  C 5.97 30.61 10.32 15.78 22.23 10.20
  Z
  M 21.20 47.49
  C 40.84 57.71 61.33 36.08 47.72 18.15
  C 39.43 7.23 23.44 8.16 15.63 18.95
  Q 8.33 29.03 15.25 41.84
  A 1.37 0.69 51.4 0 1 15.44 42.74
  L 13.85 48.33
  Q 13.59 49.25 14.51 49.01
  L 20.26 47.51
  A 1.37 0.50 -21.4 0 1 21.20 47.49
  Z"
/>
<path fill="#20ab4b" d="
  M 20.26 47.51
  L 14.51 49.01
  Q 13.59 49.25 13.85 48.33
  L 15.44 42.74
  A 1.37 0.69 51.4 0 0 15.25 41.84
  Q 8.33 29.03 15.63 18.95
  C 23.44 8.16 39.43 7.23 47.72 18.15
  C 61.33 36.08 40.84 57.71 21.20 47.49
  A 1.37 0.50 -21.4 0 0 20.26 47.51
  Z
  M 42.57 35.91
  L 38.19 34.06
  A 1.42 0.73 33.6 0 0 37.22 33.95
  Q 35.75 34.53 34.84 35.85
  A 0.68 0.60 31.6 0 1 34.00 36.00
  Q 29.02 33.23 26.24 28.26
  A 0.77 0.59 -39.0 0 1 26.44 27.44
  L 28.07 25.81
  A 0.95 0.64 -37.6 0 0 28.36 24.95
  L 26.24 19.47
  Q 25.39 17.26 23.03 19.03
  C 14.07 25.77 28.88 38.98 34.40 41.21
  Q 36.71 42.14 39.75 41.70
  Q 42.82 41.24 43.44 38.25
  A 2.23 1.63 -74.3 0 0 42.57 35.91
  Z"
/>
<path fill="#ffffff" d="
  M 42.57 35.91
  A 2.23 1.63 -74.3 0 1 43.44 38.25
  Q 42.82 41.24 39.75 41.70
  Q 36.71 42.14 34.40 41.21
  C 28.88 38.98 14.07 25.77 23.03 19.03
  Q 25.39 17.26 26.24 19.47
  L 28.36 24.95
  A 0.95 0.64 -37.6 0 1 28.07 25.81
  L 26.44 27.44
  A 0.77 0.59 -39.0 0 0 26.24 28.26
  Q 29.02 33.23 34.00 36.00
  A 0.68 0.60 31.6 0 0 34.84 35.85
  Q 35.75 34.53 37.22 33.95
  A 1.42 0.73 33.6 0 1 38.19 34.06
  L 42.57 35.91
  Z"
/>
</svg>
